<?xml version="1.0" encoding="UTF-8"?>
<svg width="12px" height="192px" viewBox="0 0 12 192" version="1.1" xmlns="http://www.w3.org/2000/svg" xmlns:xlink="http://www.w3.org/1999/xlink">
    <!-- Generator: Sketch 52.6 (67491) - http://www.bohemiancoding.com/sketch -->
    <title>left</title>
    <desc>Created with Sketch.</desc>
    <g id="left" stroke="none" stroke-width="1" fill="none" fill-rule="evenodd">
        <g id="分组-copy-3" transform="translate(6.000000, 96.000000) scale(-1, -1) rotate(180.000000) translate(-6.000000, -96.000000) ">
            <polygon id="Fill-1" fill-opacity="0.5" fill="#1F62BA" points="1 167.272 10.8616981 175.996151 10.8616981 104.580491 1 95.8565283"></polygon>
            <polygon id="Fill-2" fill-opacity="0.5" fill="#1F62BA" points="1 91.9693396 10.8616981 100.693491 10.8616981 85.3800943 1 76.6559434"></polygon>
            <polygon id="Fill-3" fill-opacity="0.5" fill="#1F62BA" points="1 72.8054528 10.8616981 81.5296038 10.8616981 66.2160189 1 57.4918679"></polygon>
            <polygon id="Fill-4" fill-opacity="0.5" fill="#1F62BA" points="1 53.6413962 10.8616981 62.3655472 10.8616981 47.0521509 1 38.328"></polygon>
            <polygon id="Fill-5" fill-opacity="0.5" fill="#1F62BA" points="1 34.4775094 10.8616981 43.2014717 10.8616981 27.8880755 1 19.1639245"></polygon>
            <polygon id="Fill-6" fill-opacity="0.5" fill="#1F62BA" points="1 3.7735849e-05 1 15.313434 10.8616981 24.0375849 10.8616981 8.724"></polygon>
            <rect id="矩形" fill-rule="nonzero" x="5.68434189e-14" y="0" width="12" height="192"></rect>
        </g>
    </g>
</svg>