<?xml version="1.0" encoding="UTF-8"?>
<svg width="576px" height="40px" viewBox="0 0 576 40" version="1.1" xmlns="http://www.w3.org/2000/svg" xmlns:xlink="http://www.w3.org/1999/xlink">
    <!-- Generator: Sketch 52.6 (67491) - http://www.bohemiancoding.com/sketch -->
    <title>top</title>
    <desc>Created with Sketch.</desc>
    <g id="top" stroke="none" stroke-width="1" fill="none" fill-rule="evenodd">
        <g id="分组" transform="translate(288.000000, 20.000000) scale(-1, 1) translate(-288.000000, -20.000000) " fill="#151C3B">
            <polygon id="Fill-1" points="414.678539 -1.0658141e-14 381.165831 39.2142551 576 39.2142551 575.834641 5.90003692e-14"></polygon>
            <polygon id="Fill-2" points="339.507203 -7.10542736e-15 304.816313 39.2142551 365.709561 39.2142551 400.40045 -7.10542736e-15"></polygon>
            <polygon id="Fill-3" points="263.303537 -7.10542736e-15 228.612647 39.2142551 289.505145 39.2142551 324.196034 -7.10542736e-15"></polygon>
            <polygon id="Fill-4" points="187.099196 -7.10542736e-15 152.408307 39.2142551 213.301554 39.2142551 247.991693 -7.10542736e-15"></polygon>
            <polygon id="Fill-5" points="110.894855 -7.10542736e-15 76.204716 39.2142551 137.097213 39.2142551 171.788103 -7.10542736e-15"></polygon>
            <polygon id="Fill-6" points="34.6911897 -7.10542736e-15 0.000300107181 39.2142551 60.8927974 39.2142551 95.583687 -7.10542736e-15"></polygon>
        </g>
    </g>
</svg>